<?xml version="1.0" encoding="utf-8"?>
<!-- Generator: Adobe Illustrator 24.1.0, SVG Export Plug-In . SVG Version: 6.00 Build 0)  -->
<svg version="1.1" id="Livello_1" xmlns="http://www.w3.org/2000/svg" xmlns:xlink="http://www.w3.org/1999/xlink" x="0px" y="0px"
	 viewBox="0 0 35 39" style="enable-background:new 0 0 35 39;" xml:space="preserve">
<style type="text/css">
	.st0{fill:#FFFFFF;}
</style>
<desc>Created with Sketch.</desc>
<g id="Home">
	<g id="Desktop-HD" transform="translate(-251.000000, -3589.000000)">
		<g id="Footer" transform="translate(0.000000, 3265.000000)">
			
				<g id="_x30_04-office-building" transform="translate(268.391892, 343.500000) scale(-1, 1) translate(-268.391892, -343.500000) translate(251.000000, 324.000000)">
				<path id="Shape" class="st0" d="M34,9.1H19.7V0.8c0-0.4-0.3-0.8-0.8-0.8H0.8C0.3,0,0,0.3,0,0.8v37.5C0,38.7,0.3,39,0.8,39h18.1
					H34c0.4,0,0.8-0.3,0.8-0.8V9.9C34.8,9.5,34.4,9.1,34,9.1z M19.7,10.7h13.6v19.2H19.7V10.7z M7.6,37.5v-6.1h4.5v6.1H7.6z
					 M12.9,29.9h-6c-0.4,0-0.8,0.3-0.8,0.8v6.9H1.5v-36h16.6v36h-4.5v-6.9C13.6,30.2,13.3,29.9,12.9,29.9z M19.7,37.5v-6.1h13.6v6.1
					H19.7z"/>
				<path id="Path" class="st0" d="M9.2,5.8h1.6c0.4,0,0.8-0.4,0.8-0.8V3.4c0-0.4-0.4-0.8-0.8-0.8H9.2C8.8,2.6,8.4,3,8.4,3.4V5
					C8.4,5.4,8.8,5.8,9.2,5.8L9.2,5.8z"/>
				<path id="Path_1_" class="st0" d="M9.2,11.6h1.6c0.4,0,0.8-0.4,0.8-0.8V9.2c0-0.4-0.4-0.8-0.8-0.8H9.2c-0.4,0-0.8,0.4-0.8,0.8
					v1.6C8.4,11.2,8.8,11.6,9.2,11.6L9.2,11.6z"/>
				<path id="Path_2_" class="st0" d="M9.2,16.9h1.6c0.4,0,0.8-0.4,0.8-0.8v-1.6c0-0.4-0.4-0.8-0.8-0.8H9.2c-0.4,0-0.8,0.4-0.8,0.8
					v1.6C8.4,16.5,8.8,16.9,9.2,16.9L9.2,16.9z"/>
				<path id="Path_3_" class="st0" d="M9.2,22.1h1.6c0.4,0,0.8-0.4,0.8-0.8v-1.6c0-0.4-0.4-0.8-0.8-0.8H9.2c-0.4,0-0.8,0.4-0.8,0.8
					v1.6C8.4,21.8,8.8,22.1,9.2,22.1L9.2,22.1z"/>
				<path id="Path_4_" class="st0" d="M9.2,27.4h1.6c0.4,0,0.8-0.4,0.8-0.8V25c0-0.4-0.4-0.8-0.8-0.8H9.2c-0.4,0-0.8,0.4-0.8,0.8
					v1.6C8.4,27.1,8.8,27.4,9.2,27.4L9.2,27.4z"/>
				<path id="Path_5_" class="st0" d="M3.4,5.8H5c0.4,0,0.8-0.4,0.8-0.8V3.4C5.8,3,5.4,2.6,5,2.6H3.4C3,2.6,2.6,3,2.6,3.4V5
					C2.6,5.4,3,5.8,3.4,5.8z"/>
				<path id="Path_6_" class="st0" d="M3.4,11.6H5c0.4,0,0.8-0.4,0.8-0.8V9.2c0-0.4-0.4-0.8-0.8-0.8H3.4C3,8.4,2.6,8.8,2.6,9.2v1.6
					C2.6,11.2,3,11.6,3.4,11.6z"/>
				<path id="Path_7_" class="st0" d="M3.4,16.9H5c0.4,0,0.8-0.4,0.8-0.8v-1.6c0-0.4-0.4-0.8-0.8-0.8H3.4c-0.4,0-0.8,0.4-0.8,0.8
					v1.6C2.6,16.5,3,16.9,3.4,16.9z"/>
				<path id="Path_8_" class="st0" d="M3.4,22.1H5c0.4,0,0.8-0.4,0.8-0.8v-1.6C5.8,19.3,5.4,19,5,19H3.4c-0.4,0-0.8,0.4-0.8,0.8v1.6
					C2.6,21.8,3,22.1,3.4,22.1z"/>
				<path id="Path_9_" class="st0" d="M3.4,27.4H5c0.4,0,0.8-0.4,0.8-0.8V25c0-0.4-0.4-0.8-0.8-0.8H3.4c-0.4,0-0.8,0.4-0.8,0.8v1.6
					C2.6,27.1,3,27.4,3.4,27.4z"/>
				<path id="Path_10_" class="st0" d="M16.1,2.6h-1.6c-0.4,0-0.8,0.4-0.8,0.8V5c0,0.4,0.4,0.8,0.8,0.8h1.6c0.4,0,0.8-0.4,0.8-0.8
					V3.4C16.9,3,16.5,2.6,16.1,2.6z"/>
				<path id="Path_11_" class="st0" d="M16.1,8.4h-1.6c-0.4,0-0.8,0.4-0.8,0.8v1.6c0,0.4,0.4,0.8,0.8,0.8h1.6c0.4,0,0.8-0.4,0.8-0.8
					V9.2C16.9,8.8,16.5,8.4,16.1,8.4z"/>
				<path id="Path_12_" class="st0" d="M16.1,13.7h-1.6c-0.4,0-0.8,0.4-0.8,0.8v1.6c0,0.4,0.4,0.8,0.8,0.8h1.6
					c0.4,0,0.8-0.4,0.8-0.8v-1.6C16.9,14.1,16.5,13.7,16.1,13.7z"/>
				<path id="Path_13_" class="st0" d="M16.1,19h-1.6c-0.4,0-0.8,0.4-0.8,0.8v1.6c0,0.4,0.4,0.8,0.8,0.8h1.6c0.4,0,0.8-0.4,0.8-0.8
					v-1.6C16.9,19.3,16.5,19,16.1,19z"/>
				<path id="Path_14_" class="st0" d="M16.1,24.2h-1.6c-0.4,0-0.8,0.4-0.8,0.8v1.6c0,0.4,0.4,0.8,0.8,0.8h1.6
					c0.4,0,0.8-0.4,0.8-0.8V25C16.9,24.6,16.5,24.2,16.1,24.2z"/>
				<path id="Path_15_" class="st0" d="M29.8,13.7h-1.6c-0.4,0-0.8,0.4-0.8,0.8v1.6c0,0.4,0.4,0.8,0.8,0.8h1.6
					c0.4,0,0.8-0.4,0.8-0.8v-1.6C30.6,14.1,30.2,13.7,29.8,13.7z"/>
				<path id="Path_16_" class="st0" d="M29.8,19h-1.6c-0.4,0-0.8,0.4-0.8,0.8v1.6c0,0.4,0.4,0.8,0.8,0.8h1.6c0.4,0,0.8-0.4,0.8-0.8
					v-1.6C30.6,19.3,30.2,19,29.8,19z"/>
				<path id="Path_17_" class="st0" d="M29.8,24.2h-1.6c-0.4,0-0.8,0.4-0.8,0.8v1.6c0,0.4,0.4,0.8,0.8,0.8h1.6
					c0.4,0,0.8-0.4,0.8-0.8V25C30.6,24.6,30.2,24.2,29.8,24.2z"/>
				<path id="Path_18_" class="st0" d="M24.5,13.7h-1.6c-0.4,0-0.8,0.4-0.8,0.8v1.6c0,0.4,0.4,0.8,0.8,0.8h1.6
					c0.4,0,0.8-0.4,0.8-0.8v-1.6C25.3,14.1,24.9,13.7,24.5,13.7z"/>
				<path id="Path_19_" class="st0" d="M24.5,19h-1.6c-0.4,0-0.8,0.4-0.8,0.8v1.6c0,0.4,0.4,0.8,0.8,0.8h1.6c0.4,0,0.8-0.4,0.8-0.8
					v-1.6C25.3,19.3,24.9,19,24.5,19z"/>
				<path id="Path_20_" class="st0" d="M24.5,24.2h-1.6c-0.4,0-0.8,0.4-0.8,0.8v1.6c0,0.4,0.4,0.8,0.8,0.8h1.6
					c0.4,0,0.8-0.4,0.8-0.8V25C25.3,24.6,24.9,24.2,24.5,24.2z"/>
			</g>
		</g>
	</g>
</g>
</svg>
