<?xml version="1.0" encoding="utf-8"?>
<!-- Generator: Adobe Illustrator 24.1.0, SVG Export Plug-In . SVG Version: 6.00 Build 0)  -->
<svg version="1.1" id="Livello_1" xmlns="http://www.w3.org/2000/svg" xmlns:xlink="http://www.w3.org/1999/xlink" x="0px" y="0px"
	 viewBox="0 0 1142.6 359.3" style="enable-background:new 0 0 1142.6 359.3;" xml:space="preserve">
<style type="text/css">
	.st0{fill:#3470B6;}
</style>
<path class="st0" d="M508.1,127.1c-30.8-0.2-60.4,11.9-82.4,33.5c-5.3,5.4-10,11.2-14.2,17.4c-4.3-6.3-9.1-12.1-14.4-17.4
	c-16.8-16.8-38.5-27.9-62-31.8v42.7c39.7,11,63.1,52.1,52.1,91.9s-52.1,63.1-91.9,52.1c-39.7-11-63.1-52.1-52.1-91.9
	c7-25.3,26.8-45.1,52.1-52.1v-42.7c-63.2,10.9-105.6,71-94.7,134.2s71,105.6,134.2,94.7c23.6-4.1,45.3-15.3,62.3-32.2
	c5.3-5.3,10.2-11.2,14.4-17.4c4.2,6.2,8.9,12.1,14.2,17.4c17.1,16.9,38.9,28.1,62.5,32.2v-42.6c-32.3-9-54.7-38.4-54.8-72
	c0-41.2,33.5-74.2,74.7-74.2s74.7,33,74.7,74.2c0,33.6-22.4,63-54.8,72v42.6c63.2-10.9,105.6-71,94.7-134.3
	c-4.1-23.8-15.5-45.7-32.7-62.7C568.2,138.7,539.1,127.1,508.1,127.1z"/>
<polygon class="st0" points="196.3,132.8 137.1,132.8 41.4,221.8 41.4,0 0,0 0,353.1 41.4,353.1 41.4,277.1 79.4,241.5 160.2,353.1 
	212.6,353.1 110.7,212.6 "/>
<path class="st0" d="M821.8,158.3c-20.7-17.3-46.7-30.3-74.1-30.3c-63.5-1.5-116.1,48.8-117.6,112.3
	c-1.5,63.5,48.8,116.1,112.3,117.6c1.8,0,3.5,0,5.3,0c27.4,0,53.4-13,74.1-30.3v25.5h41.4V0h-41.4V158.3z M747.7,317.5
	c-40.9,0-74.1-33.7-74.1-74.6s33.2-74.6,74.1-74.6s74.1,33.7,74.1,74.6S788.6,317.5,747.7,317.5z"/>
<path class="st0" d="M931.4,42.8c-14.9-0.2-27.2,11.7-27.4,26.6c0,0.1,0,0.2,0,0.4c0,15.1,12.2,27.4,27.4,27.4c0,0,0,0,0,0
	c14.9,0,26.9-12.5,26.9-27.4c0-14.9-12-26.9-26.8-26.9C931.5,42.8,931.4,42.8,931.4,42.8z"/>
<rect x="910.7" y="132.8" class="st0" width="41.4" height="220.3"/>
<path class="st0" d="M1132.1,313.7h-37c-17.3,0-32.7-16.8-32.7-34.6V172.2h67.8v-39.4h-67.8V47.6h-41.5v85.1h-32.7v39.4h32.7V280
	c-0.2,40.2,32.3,72.9,72.5,73.1c0.2,0,0.4,0,0.7,0h48.6L1132.1,313.7z"/>
</svg>
