<?xml version="1.0" encoding="utf-8"?>
<!-- Generator: Adobe Illustrator 24.1.0, SVG Export Plug-In . SVG Version: 6.00 Build 0)  -->
<svg version="1.1" id="Livello_1" xmlns="http://www.w3.org/2000/svg" xmlns:xlink="http://www.w3.org/1999/xlink" x="0px" y="0px"
	 viewBox="0 0 47 39" style="enable-background:new 0 0 47 39;" xml:space="preserve">
<style type="text/css">
	.st0{fill:#FFFFFF;}
</style>
<desc>Created with Sketch.</desc>
<g id="Home">
	<g id="Desktop-HD" transform="translate(-437.000000, -3592.000000)">
		<g id="Footer" transform="translate(0.000000, 3265.000000)">
			
				<g id="_x30_03-milan-1" transform="translate(460.121429, 346.500000) scale(-1, 1) rotate(360.000000) translate(-460.121429, -346.500000) translate(437.000000, 327.000000)">
				<path id="Shape" class="st0" d="M8.5,27.9h3c0.4,0,0.7-0.3,0.7-0.8V25c0-1.3-0.7-2.6-1.9-3.2c-0.2-0.1-0.5-0.1-0.7,0
					c-1.2,0.6-1.9,1.8-1.9,3.2v2.1C7.8,27.5,8.1,27.9,8.5,27.9z M9.3,25c0-0.6,0.3-1.2,0.7-1.6c0.5,0.4,0.7,1,0.7,1.6v1.4H9.3
					L9.3,25L9.3,25z"/>
				<path id="Shape_1_" class="st0" d="M34.7,27.9h3c0.4,0,0.7-0.3,0.7-0.8V25c0-1.3-0.7-2.6-1.9-3.2c-0.2-0.1-0.5-0.1-0.7,0
					C34.7,22.4,34,23.6,34,25v2.1C34,27.5,34.3,27.9,34.7,27.9z M35.5,25c0-0.6,0.3-1.2,0.7-1.6c0.5,0.4,0.7,1,0.7,1.6v1.4h-1.5
					L35.5,25L35.5,25z"/>
				<path id="Shape_2_" class="st0" d="M24.7,27.9h1.5v-1.5h-0.8V24c0-1.3-1-2.3-2.3-2.3c-1.3,0-2.3,1-2.3,2.3v2.3h-0.8v1.5H24.7z
					 M22.4,24c0-0.4,0.3-0.8,0.8-0.8c0.4,0,0.8,0.3,0.8,0.8v2.3h-1.5V24z"/>
				<path id="Shape_3_" class="st0" d="M24.7,17.8h1.5v-1.5h-0.8v-1.4c0-1.3-0.8-2.6-2-3.2c-0.2-0.1-0.5-0.1-0.7,0
					c-1.2,0.6-2,1.8-2,3.2v1.4h-0.8v1.5H24.7z M22.4,14.9c0-0.6,0.3-1.2,0.8-1.6c0.5,0.4,0.8,1,0.8,1.6v1.4h-1.5V14.9z"/>
				<path id="Shape_4_" class="st0" d="M44.7,18.7v-7.8h-1.5v7h-1.5v-7h-1.5v6.4l-7.7-6.9V0h-1.5v7h-1.5V0h-1.5v6.2L27,5.5V5.5h-0.1
					l-3.2-2.9c-0.3-0.3-0.7-0.3-1,0l-3.2,2.9h-0.1v0.1l-0.8,0.7V0H17v7h-1.5V0h-1.5v10.4l-7.7,6.9v-6.4H4.6v7H3.1v-7H1.5v23.4H0v1.6
					h1.5v1.6H0V39h46.2v-1.6h-1.5v-1.6h1.5v-1.6h-1.5V18.7z M43.2,34.3h-1.5V19.5h1.5V34.3z M3.1,19.5h1.5v14.8H3.1V19.5z M3.1,35.9
					h1.5v1.6H3.1V35.9z M6.2,19.4L7.7,18v1.5h1.5v-2.9l1.5-1.4v4.2h1.5v-5.6l1.5-1.4v25h-1.5v-3.1c0-1.3-1-2.3-2.3-2.3
					c-1.3,0-2.3,1-2.3,2.3v3.1H6.2V19.4z M9.2,37.4v-3.1c0-0.4,0.3-0.8,0.8-0.8c0.4,0,0.8,0.3,0.8,0.8v3.1H9.2z M15.4,10.7V8.6H17
					v28.9h-1.5L15.4,10.7L15.4,10.7z M18.5,8.3l0.8-0.7v1.7h1.5V6.2l1.5-1.4v4.5h1.5V4.9l1.5,1.4v3.1H27V7.6l0.8,0.7v29.1h-2.3v-3.1
					c0-1.3-1-2.3-2.3-2.3c-1.3,0-2.3,1-2.3,2.3v3.1h-2.3V8.3z M22.4,37.4v-3.1c0-0.4,0.3-0.8,0.8-0.8c0.4,0,0.8,0.3,0.8,0.8v3.1
					H22.4z M29.3,8.6h1.5v28.9h-1.5V8.6z M32.4,12.5l1.5,1.4v5.6h1.5v-4.2l1.5,1.4v2.9h1.5V18l1.5,1.4v18h-1.5v-3.1
					c0-1.3-1-2.3-2.3-2.3c-1.3,0-2.3,1-2.3,2.3v3.1h-1.5L32.4,12.5L32.4,12.5z M35.5,37.4v-3.1c0-0.4,0.3-0.8,0.8-0.8
					c0.4,0,0.8,0.3,0.8,0.8v3.1H35.5z M43.2,37.4h-1.5v-1.6h1.5V37.4z"/>
			</g>
		</g>
	</g>
</g>
</svg>
