<?xml version="1.0" encoding="UTF-8"?>
<svg width="203px" height="34px" viewBox="0 0 203 34" version="1.1" xmlns="http://www.w3.org/2000/svg" xmlns:xlink="http://www.w3.org/1999/xlink">
    <!-- Generator: Sketch 64 (93537) - https://sketch.com -->
    <title>shopify-partner</title>
    <desc>Created with Sketch.</desc>
    <defs>
        <polygon id="path-1" points="0.0941306755 0.165353297 23.4464452 0.165353297 23.4464452 26.8616247 0.0941306755 26.8616247"></polygon>
    </defs>
    <g id="Home" stroke="none" stroke-width="1" fill="none" fill-rule="evenodd">
        <g id="Desktop-HD" transform="translate(-848.000000, -3600.000000)">
            <g id="Footer" transform="translate(0.000000, 3265.000000)">
                <g id="shopify-partner" transform="translate(848.000000, 335.000000)">
                    <path d="M123.546904,25.751646 C124.175396,26.236859 125.089296,26.5219308 126.202835,26.5219308 C129.82997,26.5219308 132.342827,21.3876838 132.342827,17.878937 C132.342827,16.2530675 131.714705,14.4274262 129.686896,14.4274262 C127.745227,14.4274262 125.203164,16.9092497 124.432338,21.0450068 L123.546904,25.751646 Z M120.976744,33.2093023 L123.718446,18.4893304 C124.061158,16.6921224 124.3181,15.1157343 124.489272,13.6386782 L125.660114,13.6386782 L125.232001,16.5927904 L125.288935,16.5927904 C126.517081,14.7464703 128.230644,13.4418605 130.058445,13.4418605 C132.657073,13.4418605 133.627907,15.5891308 133.627907,17.8427491 C133.627907,22.4633499 130.458092,27.7777978 126.088598,27.7777978 C124.746584,27.7777978 123.86115,27.3014472 123.346896,27.3014472 L123.289962,27.3014472 L122.20489,33.2093023 L120.976744,33.2093023 L120.976744,33.2093023 Z" id="Fill-1" fill="#FFFFFF"></path>
                    <path d="M144.796656,14.6698505 C144.470386,14.5569865 143.966396,14.4722471 143.076641,14.4722471 C138.98484,14.4722471 135.78241,18.8173303 135.752854,23.0780394 C135.723298,24.8553742 136.256844,26.4354709 138.184136,26.4354709 C140.497194,26.4354709 143.106581,23.1342888 143.788291,19.6355033 L144.796656,14.6698505 Z M142.89892,27.5714165 C142.86898,26.475649 143.047084,25.3798816 143.254745,23.9192236 L143.195249,23.9192236 C141.564286,26.8412701 139.755987,27.6744186 137.887807,27.6744186 C135.723298,27.6744186 134.418605,25.8981796 134.418605,23.4714199 C134.418605,18.8443592 137.887807,13.4418605 143.40291,13.4418605 C144.41089,13.4418605 145.537863,13.5616644 146.27907,13.8158824 L144.766716,21.2583349 C144.262725,23.7975934 144.085005,26.1107585 144.144117,27.5714165 L142.89892,27.5714165 L142.89892,27.5714165 Z" id="Fill-2" fill="#FFFFFF"></path>
                    <path d="M147.069767,27.6744186 L148.8762,18.2786082 C149.231583,16.5363289 149.438985,15.1031637 149.557446,13.624149 L150.712536,13.624149 C150.623594,14.73341 150.505133,15.4729174 150.32725,16.951932 L150.386672,16.951932 C151.245418,15.1031637 152.666949,13.4976933 154.443862,13.4976933 C154.621362,13.4976933 154.828764,13.4418605 154.976744,13.4418605 L154.710303,14.7134433 C154.591842,14.6849723 154.443862,14.6638963 154.236459,14.6638963 C152.370605,14.6638963 150.297731,17.5416891 149.705426,20.5407611 L148.343318,27.6744186 L147.069767,27.6744186" id="Fill-3" fill="#FFFFFF"></path>
                    <path d="M160.864518,10.2790698 L160.223227,13.3599899 L163.674419,13.3599899 L163.430079,14.4975604 L159.978888,14.4975604 L158.36024,22.8427775 C158.176788,23.7801356 158.054618,24.496805 158.054618,25.2578397 C158.054618,26.078028 158.451966,26.5683209 159.36804,26.5683209 C159.856718,26.5683209 160.161944,26.5349522 160.437122,26.44698 L160.528453,27.4704143 C160.131501,27.5872049 159.612379,27.6744186 159.093257,27.6744186 C157.352044,27.6744186 156.680309,26.5607371 156.680309,25.3894187 C156.680309,24.6276256 156.772035,23.9268822 157.016374,22.8431567 L158.665466,14.4975604 L156.55814,14.4975604 L156.772035,13.3599899 L158.909805,13.3599899 L159.398483,10.8379961 L160.864518,10.2790698" id="Fill-4" fill="#FFFFFF"></path>
                    <path d="M162.883721,27.6744186 L164.704983,17.841518 C165.018105,16.2167849 165.188664,14.7595806 165.302493,13.6525628 L166.469147,13.6525628 L166.07093,16.6046102 L166.12766,16.6046102 C167.323048,14.7595806 169.030481,13.4418605 170.908473,13.4418605 C172.245687,13.4418605 173.953488,14.2547805 173.953488,16.8485231 C173.953488,17.533029 173.839659,18.3706725 173.697097,19.1120054 L172.132226,27.6744186 L170.908473,27.6744186 L172.502078,19.090972 C172.615907,18.464031 172.701371,17.720484 172.701371,17.0083026 C172.701371,15.5828328 172.132226,14.5130846 170.453158,14.5130846 C168.631896,14.5130846 166.042565,16.9463096 165.444687,20.2529716 L164.107474,27.6744186 L162.883721,27.6744186" id="Fill-5" fill="#FFFFFF"></path>
                    <path d="M185.319383,16.4650837 C185.319383,15.2100842 184.402543,14.525539 183.065356,14.525539 C180.867093,14.525539 178.919193,16.8073563 178.02812,19.7737187 C181.741245,19.8021491 185.319383,19.2032644 185.319383,16.4935141 L185.319383,16.4650837 Z M184.703285,26.6472316 C183.96066,27.1323947 182.594245,27.6744186 180.811714,27.6744186 C177.484323,27.6744186 176.325581,25.1644196 176.325581,22.5399606 C176.325581,18.6040104 179.207244,13.4418605 183.27726,13.4418605 C185.624355,13.4418605 186.604651,14.896242 186.604651,16.4366533 C186.604651,19.91624 182.445797,20.8858277 177.781219,20.8573973 C177.632771,21.4850816 177.603158,23.2817358 177.900054,24.2801231 C178.405393,25.8201652 179.504524,26.5903708 181.019772,26.5903708 C182.594245,26.5903708 183.663763,26.0483469 184.317166,25.6776439 L184.703285,26.6472316 L184.703285,26.6472316 Z" id="Fill-6" fill="#FFFFFF"></path>
                    <path d="M186.604651,27.6744186 L188.411084,18.2786082 C188.766467,16.5363289 188.973869,15.1031637 189.09233,13.624149 L190.247036,13.624149 C190.158094,14.73341 190.039634,15.4729174 189.862134,16.951932 L189.921556,16.951932 C190.780302,15.1031637 192.201832,13.4976933 193.978362,13.4976933 C194.156245,13.4976933 194.363648,13.4418605 194.511628,13.4418605 L194.245187,14.7134433 C194.126726,14.6849723 193.978362,14.6638963 193.771343,14.6638963 C191.905488,14.6638963 189.832615,17.5416891 189.24031,20.5407611 L187.878202,27.6744186 L186.604651,27.6744186" id="Fill-7" fill="#FFFFFF"></path>
                    <path d="M194.225483,25.8201652 C194.730036,26.1908682 195.679963,26.5903708 196.719042,26.5903708 C198.589307,26.5903708 199.865483,25.3065717 199.865483,23.7380992 C199.865483,22.3690089 199.271779,21.5419425 197.93604,20.714876 C196.511149,19.8305795 195.739525,18.6040104 195.739525,17.3209498 C195.739525,15.1816538 197.550228,13.4418605 200.073376,13.4418605 C201.052892,13.4418605 202.002819,13.726903 202.418605,14.0407452 L201.943257,15.0959934 C201.498267,14.8393812 200.755848,14.525539 199.925046,14.525539 C198.203111,14.525539 197.045675,15.6948781 197.045675,17.0923988 C197.045675,18.3761979 197.817299,19.0891735 198.975119,19.8593792 C200.340447,20.7433064 201.171633,21.9983059 201.171633,23.3958267 C201.171633,26.1624378 199.06427,27.6744186 196.600301,27.6744186 C195.32374,27.6744186 194.195894,27.2176859 193.72093,26.8469829 L194.225483,25.8201652" id="Fill-8" fill="#FFFFFF"></path>
                    <path d="M10.9654175,11.0697674 C10.9385382,11.0697674 10.9105232,11.0674485 10.8821296,11.0635837 C10.5614716,11.0175921 10.2930577,10.7215451 10.282836,10.4019226 C10.2726143,10.0892569 10.0859739,2.72479933 14.3162374,1.04977655 C15.3838357,0.626962772 16.3537601,0.7220379 17.1983742,1.33229654 C18.2141069,2.06623015 18.9546112,3.51515964 19.3994438,5.63850415 C19.7140446,7.1399955 19.7647745,8.43355831 19.7670459,8.48766611 C19.778782,8.80767508 19.5281614,9.03106298 19.2075033,8.98661729 C18.8864667,8.94255808 18.6165384,8.64728411 18.6048024,8.32766163 C18.5540726,6.99351797 18.1016683,3.30027439 16.6350457,2.24092104 C16.1652268,1.90197434 15.5965982,1.87182857 14.8969806,2.14893778 C11.2709323,3.5847268 11.442808,10.4989302 11.4450795,10.5684974 C11.4541655,10.85952 11.2455674,11.0697674 10.9654175,11.0697674" id="Fill-9" fill="#FFFFFF"></path>
                    <path d="M20.0804593,3.98661736 L3.63113107,9.03428519 C3.63113107,9.03428519 2.9250778,9.23306871 2.75950736,9.42996623 C2.57757019,9.64610086 2.54255299,10.2288723 2.54255299,10.2288723 L0,29.665147 L19.0881785,33.2093023 L20.5581395,3.97039783 C20.3476557,3.92928321 20.1326045,3.97454701 20.0804593,3.98661736" id="Fill-10" fill="#FFFFFF"></path>
                    <path d="M25.6246804,6.48293346 C25.6246804,6.48293346 25.5970658,6.33347654 25.5119523,6.27875115 C25.427217,6.22402577 25.3345378,6.21345811 25.3345378,6.21345811 L22.6566761,6.01455963 L20.6862027,4.06105206 C20.6124376,4.00406218 20.5258109,3.97084953 20.4376711,3.95348837 L18.9767442,33.2093023 L29.255814,30.9897162 L25.6246804,6.48293346" id="Fill-11" fill="#FFFFFF"></path>
                    <g id="Group-15" transform="translate(3.953488, 0.000000)">
                        <path d="M9.16480902,20.4001248 C8.87038196,20.0128494 8.52726709,19.6720171 8.16498379,19.3705116 C7.80768428,19.0731261 7.43236646,18.8139437 7.064716,18.5839755 C6.80287526,18.4240465 6.5755377,18.2697356 6.38308668,18.1191701 C6.19178576,17.9689792 6.03422128,17.8217846 5.9096265,17.6742154 C5.78618182,17.5270208 5.6949401,17.3794517 5.63705144,17.2281371 C5.57877942,17.0775716 5.55309373,16.9225116 5.56037773,16.7610845 C5.56996195,16.5431016 5.61941649,16.3457185 5.70414094,16.1715569 C5.78963214,15.9966463 5.91039323,15.8445826 6.06335729,15.7172387 C6.21670472,15.5891457 6.40302185,15.4865214 6.61770825,15.4116132 C6.83431149,15.3363305 7.08005074,15.2891383 7.35185906,15.2734076 C7.64743622,15.2561787 7.93304581,15.2651677 8.20447075,15.2925092 C8.47934602,15.3202252 8.73965328,15.3670428 8.98155884,15.4250967 C9.22576462,15.4835251 9.45118534,15.5531897 9.65360395,15.6265998 C9.85755603,15.7007589 10.0381226,15.7779143 10.1903199,15.8505753 L11.4726878,12.1171506 C11.282537,12.0220171 11.0509824,11.9347491 10.7837745,11.8609645 C10.5192502,11.787929 10.2202227,11.728377 9.89244257,11.687552 C9.56887949,11.6471016 9.21733051,11.6253782 8.84354616,11.6271391 C8.47512896,11.6287491 8.08524313,11.6530942 7.67925581,11.7051554 C6.80402537,11.8171432 6.01390275,12.0538531 5.32307259,12.39094 C4.65141085,12.7186634 4.069074,13.1445165 3.58986328,13.6490233 C3.12023679,14.1437919 2.74568569,14.7190869 2.48154475,15.359552 C2.21970402,15.9932754 2.06328964,16.697787 2.02955321,17.4614761 C2.0088513,17.9180416 2.05600564,18.3379021 2.15759831,18.7251775 C2.25957435,19.1147001 2.4175222,19.4731359 2.61802396,19.8042301 C2.82044257,20.1394443 3.06733192,20.447317 3.34604087,20.7319682 C3.62820014,21.0203647 3.94332911,21.2859143 4.27839323,21.5297405 C4.55135166,21.7248764 4.78175617,21.9084015 4.97382382,22.086683 C5.16742495,22.2660881 5.32115574,22.4395006 5.43923326,22.6125386 C5.55769415,22.7867001 5.63973502,22.9597381 5.68995631,23.1387687 C5.74056096,23.3177993 5.75896265,23.502448 5.75014517,23.6983329 C5.7413277,23.8942179 5.69839042,24.0773684 5.62210007,24.2395447 C5.54580973,24.4017209 5.43654968,24.5429229 5.29585342,24.6541616 C5.15592389,24.7650257 4.98494151,24.8463011 4.78405638,24.8908715 C4.58508809,24.9346928 4.35775053,24.9421836 4.1031938,24.9054786 C3.81490063,24.8639045 3.52392389,24.7826291 3.24138125,24.676634 C2.9626723,24.5721371 2.69124736,24.4436695 2.43745736,24.3050894 C2.18635095,24.1680073 1.95211276,24.0211873 1.74394362,23.8781126 C1.53730796,23.7361616 1.35597463,23.5975814 1.20799436,23.4751065 L0.330080338,26.3216181 C0.475377026,26.503645 0.660544045,26.6852974 0.878680761,26.8609572 C1.09911769,27.0384896 1.35329105,27.2104039 1.63468358,27.3703329 C1.91952643,27.5325092 2.23235518,27.6827001 2.56588584,27.814164 C2.90440028,27.9478752 3.264,28.0628592 3.63740099,28.1508764 C3.64353488,28.1523745 3.65005215,28.1538727 3.65618605,28.1549963 C3.66231994,28.156869 3.66883721,28.1583672 3.67497111,28.1594908 C3.68148837,28.160989 3.68762227,28.1621126 3.69413953,28.1632362 C3.69989006,28.1647344 3.70640733,28.1662326 3.71292459,28.1677307 C4.50841438,28.3392705 5.28013531,28.3812191 5.99971811,28.2872093 C6.74115292,28.1902032 7.42239887,27.9493733 8.01048626,27.5613488 C8.61199154,27.1643354 9.11113742,26.6163819 9.47342072,25.9193611 C9.83992107,25.2129767 10.0611247,24.3620196 10.1052121,23.374355 C10.1320479,22.7702203 10.0465567,22.2222668 9.87825793,21.7252509 C9.71072586,21.232355 9.46306977,20.7926438 9.16480902,20.4001248" id="Fill-12" fill="#336FB5"></path>
                        <path d="M2.82235941,10.3073684 C2.79475687,10.3073684 2.76677097,10.3054957 2.73878506,10.3013758 C2.42173925,10.2568054 2.20206906,9.96990698 2.24768992,9.66053611 C2.29216068,9.35753244 3.39127837,2.22065361 7.96793235,0.59701836 C9.12302185,0.187270502 10.0883439,0.27978213 10.8370627,0.871182375 C11.7372121,1.5820612 12.2332911,2.98621542 12.3126483,5.04431824 C12.3686202,6.49941004 12.1938041,7.75262424 12.1865201,7.80543452 C12.1424327,8.11555447 11.8495391,8.33166463 11.5324933,8.28896695 C11.2150641,8.24589474 10.9938605,7.96011995 11.0375645,7.65 C11.2196646,6.357459 11.4075152,2.77834517 10.1075123,1.75172827 C9.69117407,1.42325581 9.12033827,1.39404162 8.36356871,1.66221297 C4.44055814,3.0536328 3.405463,9.75417136 3.39549542,9.82158874 C3.35370825,10.1039927 3.10566878,10.3073684 2.82235941,10.3073684" id="Fill-14" fill="#FFFFFF"></path>
                    </g>
                    <path d="M38.9631671,17.0278285 C38.9631671,16.1997797 39.6934813,15.6677354 40.8323339,15.6677354 C41.8840466,15.6677354 42.7893948,15.963358 43.3442978,16.2295711 L44.2790698,13.3314003 C43.6366498,12.9467854 42.4389496,12.6511628 40.8908043,12.6511628 C37.3565514,12.6511628 34.9324817,14.6914934 34.9324817,17.5602547 C34.9324817,19.1865609 36.0717114,20.4290161 37.590433,21.3158838 C38.8171797,22.0255308 39.2551419,22.5285476 39.2551419,23.267986 C39.2551419,24.0368339 38.6417685,24.6578705 37.502916,24.6578705 C36.2467454,24.68728 34.9324817,24.1548537 34.2021675,23.7706208 L33.2093023,26.6687916 C33.9686631,27.2008359 35.5168085,27.6446517 37.1815174,27.6740612 C40.8032873,27.7038526 43.4027682,25.8701523 43.4027682,22.6175399 C43.4027682,20.8724499 42.0885044,19.6303767 40.5113125,18.7137175 C39.4890235,18.1518818 38.9631671,17.6786565 38.9631671,17.0278285 Z" id="Fill-16" fill="#FFFFFF"></path>
                    <path d="M55.1608534,13.0942472 C53.3522011,13.0942472 51.9291751,13.939742 50.8320358,15.2228604 L50.7726792,15.1934846 L52.3442882,7.11627907 L48.2525139,7.11627907 L44.2790698,27.6744186 L48.371227,27.6744186 L49.7348965,20.6468317 C50.2687227,17.9928444 51.662262,16.3602297 52.9669578,16.3602297 C53.8860274,16.3602297 54.2421668,16.9722248 54.2421668,17.847472 C54.2421668,18.4010922 54.1824273,19.0718388 54.0640971,19.6262122 L52.5223579,27.6744186 L56.6141322,27.6744186 L58.215228,19.3637134 C58.3929148,18.4888429 58.5116279,17.4388476 58.5116279,16.7391018 C58.5116279,14.4647397 57.2957755,13.0942472 55.1608534,13.0942472" id="Fill-17" fill="#FFFFFF"></path>
                    <path d="M65.3410202,24.5520558 C63.9765489,24.5520558 63.3957394,23.3734181 63.3957394,21.9006916 C63.3957394,19.5734718 64.5862302,15.7735255 66.7636099,15.7735255 C68.1861996,15.7735255 68.6507723,17.0107528 68.6507723,18.2183048 C68.6507723,20.7224344 67.4602814,24.5520558 65.3410202,24.5520558 Z M67.3151727,12.6511628 C62.4958408,12.6511628 59.3023256,17.0697227 59.3023256,21.9889563 C59.3023256,25.1409943 61.2183597,27.6744186 64.8183291,27.6744186 C69.5506709,27.6744186 72.744186,23.3734181 72.744186,18.3362446 C72.744186,15.4200864 71.0602508,12.6511628 67.3151727,12.6511628 L67.3151727,12.6511628 Z" id="Fill-18" fill="#FFFFFF"></path>
                    <path d="M79.1806879,24.9725625 C78.4692496,24.9725625 77.9856479,24.7455066 77.5586378,24.4047392 L78.213117,20.7410315 C78.6684229,18.2984374 79.948718,16.6793339 81.3146355,16.6793339 C82.5096756,16.6793339 82.879359,17.7871029 82.879359,18.8380163 C82.879359,21.3657105 81.3712272,24.9725625 79.1806879,24.9725625 Z M82.9363181,13.4418605 C81.3712272,13.4418605 79.8351671,14.2935955 78.7819738,15.7707432 L78.7253821,15.7707432 L78.9528513,13.6689164 L75.4816494,13.6689164 C75.3107719,15.0888416 74.9980477,17.247524 74.684956,18.8662607 L71.9534884,33.2093023 L75.8799961,33.2093023 L76.9611178,27.4151566 L77.0463728,27.4151566 C77.5016787,27.6990683 78.3839945,27.9264911 79.3511979,27.9264911 C83.9608482,27.9264911 86.9767442,23.21187 86.9767442,18.4403932 C86.9767442,15.7989876 85.81,13.4418605 82.9363181,13.4418605 L82.9363181,13.4418605 Z" id="Fill-19" fill="#FFFFFF"></path>
                    <path d="M93.0403237,7.90697674 C91.8652141,7.90697674 90.9302326,8.83563701 90.9302326,10.0295309 C90.9302326,11.1175369 91.624396,11.8604651 92.6663311,11.8604651 L92.7198079,11.8604651 C93.8683517,11.8604651 94.857155,11.0908079 94.8837209,9.73756831 C94.8837209,8.67629124 94.1623016,7.90697674 93.0403237,7.90697674" id="Fill-20" fill="#FFFFFF"></path>
                    <polygon id="Fill-21" fill="#FFFFFF" points="91.2099082 27.6744186 94.0930233 13.4418605 89.8297525 13.4418605 86.9767442 27.6744186"></polygon>
                    <g id="Group-25" transform="translate(94.883721, 7.116279)">
                        <mask id="mask-2" fill="white">
                            <use xlink:href="#path-1"></use>
                        </mask>
                        <g id="Clip-23"></g>
                        <path d="M9.56932447,6.58135585 L6.77063123,6.58135585 L6.91634551,5.92546671 C7.14941307,4.58533163 7.96571429,3.38771711 9.30688815,3.38771711 C9.83138427,3.38771711 10.2399114,3.47315578 10.5893245,3.58731953 L11.3766334,0.507844536 C10.9101218,0.308242115 10.1815504,0.165353297 9.19016611,0.165353297 C7.76163898,0.165353297 6.33311185,0.56492641 5.25437431,1.47713157 C3.88420819,2.61766422 3.24299003,4.27156547 2.92219269,5.92546671 L2.80547065,6.58135585 L0.939800664,6.58135585 L0.356566999,9.54666709 L2.22261351,9.54666709 L0.0941306755,20.5535253 L4.11765227,20.5535253 L6.24575858,9.54666709 L9.01545958,9.54666709 L9.56932447,6.58135585" id="Fill-22" fill="#FFFFFF" mask="url(#mask-2)"></path>
                        <path d="M19.2482171,6.60971265 L16.7993134,12.8544696 C16.2160797,14.3658503 15.9246512,15.2496986 15.6038538,16.1906289 L15.5458693,16.1906289 C15.4875083,15.2784237 15.3707863,14.2800433 15.1960797,12.8831946 L14.554485,6.60971265 L10.3272647,6.60971265 L12.7471761,19.4129927 C12.8051606,19.6980338 12.7761683,19.8689111 12.6594463,20.0685135 C12.1929347,20.9527302 11.4060022,21.8082217 10.472979,22.4353858 C9.71503876,22.9771112 8.86974529,23.3192342 8.19915836,23.5475616 L9.30688815,26.8837209 C10.1231894,26.7124753 11.8141528,26.0565862 13.24268,24.7451762 C15.0793577,23.0625499 16.7703212,20.4677184 18.5192691,16.9319567 L23.4464452,6.60971265 L19.2482171,6.60971265" id="Fill-24" fill="#FFFFFF" mask="url(#mask-2)"></path>
                    </g>
                </g>
            </g>
        </g>
    </g>
</svg>